<mxfile host="65bd71144e">
    <diagram id="RUl_HrmiAz0sW5EYXBpW" name="Page-1">
        <mxGraphModel dx="2120" dy="3119" grid="1" gridSize="10" guides="1" tooltips="1" connect="1" arrows="1" fold="1" page="1" pageScale="1" pageWidth="827" pageHeight="1169" math="0" shadow="0">
            <root>
                <mxCell id="0"/>
                <mxCell id="1" parent="0"/>
                <mxCell id="7ZUFgn2-yEsAoZ5fmhGq-19" value="" style="rounded=0;whiteSpace=wrap;html=1;labelBackgroundColor=#D5E8D4;fontSize=24;fontColor=#000203;fillColor=#D4E1F5;" parent="1" vertex="1">
                    <mxGeometry x="880" width="870" height="880" as="geometry"/>
                </mxCell>
                <mxCell id="7ZUFgn2-yEsAoZ5fmhGq-18" value="" style="whiteSpace=wrap;html=1;aspect=fixed;labelBackgroundColor=#D5E8D4;fontSize=24;fontColor=#000203;fillColor=#D5E8D4;" parent="1" vertex="1">
                    <mxGeometry width="880" height="880" as="geometry"/>
                </mxCell>
                <mxCell id="i4aK6D64xnlQs3ZU0jmY-1" value="" style="ellipse;shape=cloud;whiteSpace=wrap;html=1;" parent="1" vertex="1">
                    <mxGeometry x="14" y="651" width="800" height="230" as="geometry"/>
                </mxCell>
                <mxCell id="i4aK6D64xnlQs3ZU0jmY-2" value="http:///site/blog/" style="swimlane;fontSize=14;" parent="1" vertex="1">
                    <mxGeometry x="10" y="83" width="390" height="222" as="geometry">
                        <mxRectangle x="10" y="83" width="390" height="30" as="alternateBounds"/>
                    </mxGeometry>
                </mxCell>
                <mxCell id="i4aK6D64xnlQs3ZU0jmY-3" value="1. 地址栏输入 URL 刷新页面&lt;br&gt;（浏览器内容为空）" style="text;html=1;align=center;verticalAlign=middle;resizable=0;points=[];autosize=1;strokeColor=none;fillColor=none;fontSize=23;fontStyle=1" parent="i4aK6D64xnlQs3ZU0jmY-2" vertex="1">
                    <mxGeometry x="24" y="69" width="320" height="70" as="geometry"/>
                </mxCell>
                <mxCell id="i4aK6D64xnlQs3ZU0jmY-4" value="用户浏览器" style="text;html=1;align=center;verticalAlign=middle;resizable=0;points=[];autosize=1;strokeColor=none;fillColor=none;fontSize=27;fontColor=#007E9E;fontStyle=1" parent="i4aK6D64xnlQs3ZU0jmY-2" vertex="1">
                    <mxGeometry x="97" y="172" width="160" height="50" as="geometry"/>
                </mxCell>
                <mxCell id="i4aK6D64xnlQs3ZU0jmY-5" value="" style="shape=flexArrow;endArrow=classic;html=1;rounded=0;fontSize=23;" parent="i4aK6D64xnlQs3ZU0jmY-2" edge="1">
                    <mxGeometry width="50" height="50" relative="1" as="geometry">
                        <mxPoint x="185" y="69" as="sourcePoint"/>
                        <mxPoint x="184.5" y="29" as="targetPoint"/>
                    </mxGeometry>
                </mxCell>
                <mxCell id="i4aK6D64xnlQs3ZU0jmY-6" value="" style="shape=internalStorage;whiteSpace=wrap;html=1;backgroundOutline=1;fontSize=23;fontColor=#007E9E;" parent="1" vertex="1">
                    <mxGeometry x="11" y="335" width="330" height="270" as="geometry"/>
                </mxCell>
                <mxCell id="i4aK6D64xnlQs3ZU0jmY-7" value="用&lt;br&gt;户&lt;br&gt;操&lt;br&gt;作&lt;br&gt;系&lt;br&gt;统" style="text;html=1;align=center;verticalAlign=middle;resizable=0;points=[];autosize=1;strokeColor=none;fillColor=none;fontSize=27;fontColor=#007E9E;fontStyle=1" parent="1" vertex="1">
                    <mxGeometry x="36" y="365" width="50" height="210" as="geometry"/>
                </mxCell>
                <mxCell id="i4aK6D64xnlQs3ZU0jmY-8" value="http&lt;br&gt;GET" style="shape=note;whiteSpace=wrap;html=1;backgroundOutline=1;darkOpacity=0.05;fontSize=23;fontColor=#000203;" parent="1" vertex="1">
                    <mxGeometry x="115" y="365" width="100" height="110" as="geometry"/>
                </mxCell>
                <mxCell id="i4aK6D64xnlQs3ZU0jmY-9" value="tcp/ip" style="shape=note;whiteSpace=wrap;html=1;backgroundOutline=1;darkOpacity=0.05;fontSize=23;fontColor=#000203;" parent="1" vertex="1">
                    <mxGeometry x="241" y="485" width="80" height="110" as="geometry"/>
                </mxCell>
                <mxCell id="i4aK6D64xnlQs3ZU0jmY-10" value="" style="curved=1;endArrow=classic;html=1;rounded=0;fontSize=23;fontColor=#000203;exitX=0.5;exitY=1;exitDx=0;exitDy=0;exitPerimeter=0;entryX=0;entryY=0.5;entryDx=0;entryDy=0;entryPerimeter=0;" parent="1" source="i4aK6D64xnlQs3ZU0jmY-8" target="i4aK6D64xnlQs3ZU0jmY-9" edge="1">
                    <mxGeometry width="50" height="50" relative="1" as="geometry">
                        <mxPoint x="141" y="565" as="sourcePoint"/>
                        <mxPoint x="191" y="515" as="targetPoint"/>
                        <Array as="points">
                            <mxPoint x="164" y="540"/>
                        </Array>
                    </mxGeometry>
                </mxCell>
                <mxCell id="i4aK6D64xnlQs3ZU0jmY-12" value="DNS" style="shape=hexagon;perimeter=hexagonPerimeter2;whiteSpace=wrap;html=1;fixedSize=1;fontSize=23;fontColor=#000203;" parent="1" vertex="1">
                    <mxGeometry x="82" y="518" width="130" height="60" as="geometry"/>
                </mxCell>
                <mxCell id="i4aK6D64xnlQs3ZU0jmY-13" value="2. &lt;br&gt;http 请求&lt;br&gt;转成 ip 包" style="text;html=1;align=center;verticalAlign=middle;resizable=0;points=[];autosize=1;strokeColor=none;fillColor=none;fontSize=23;fontStyle=1" parent="1" vertex="1">
                    <mxGeometry x="211" y="365" width="130" height="100" as="geometry"/>
                </mxCell>
                <mxCell id="i4aK6D64xnlQs3ZU0jmY-14" value="3.ip 包 被 发送到公网" style="text;html=1;align=center;verticalAlign=middle;resizable=0;points=[];autosize=1;strokeColor=none;fillColor=none;fontSize=23;fontStyle=1" parent="1" vertex="1">
                    <mxGeometry x="95" y="730" width="240" height="40" as="geometry"/>
                </mxCell>
                <mxCell id="i4aK6D64xnlQs3ZU0jmY-15" value="" style="shape=internalStorage;whiteSpace=wrap;html=1;backgroundOutline=1;fontSize=23;fontColor=#007E9E;" parent="1" vertex="1">
                    <mxGeometry x="370" y="335" width="440" height="270" as="geometry"/>
                </mxCell>
                <mxCell id="i4aK6D64xnlQs3ZU0jmY-16" value="W&lt;br&gt;E&lt;br&gt;B&lt;br&gt;&lt;br&gt;服&lt;br&gt;务&lt;br&gt;器&lt;br&gt;" style="text;html=1;align=center;verticalAlign=middle;resizable=0;points=[];autosize=1;strokeColor=none;fillColor=none;fontSize=27;fontColor=#007E9E;fontStyle=1" parent="1" vertex="1">
                    <mxGeometry x="759" y="360" width="50" height="240" as="geometry"/>
                </mxCell>
                <mxCell id="i4aK6D64xnlQs3ZU0jmY-17" value="4.ip 包 被 发送到目标服务器" style="text;html=1;align=center;verticalAlign=middle;resizable=0;points=[];autosize=1;strokeColor=none;fillColor=none;fontSize=23;fontStyle=1" parent="1" vertex="1">
                    <mxGeometry x="411" y="709" width="310" height="40" as="geometry"/>
                </mxCell>
                <mxCell id="i4aK6D64xnlQs3ZU0jmY-18" value="规则列表" style="swimlane;fontStyle=0;childLayout=stackLayout;horizontal=1;startSize=30;horizontalStack=0;resizeParent=1;resizeParentMax=0;resizeLast=0;collapsible=1;marginBottom=0;fontSize=23;fontColor=#000203;" parent="1" vertex="1">
                    <mxGeometry x="405" y="365" width="355" height="120" as="geometry"/>
                </mxCell>
                <mxCell id="i4aK6D64xnlQs3ZU0jmY-19" value="源1: /api/xxx   &gt;&gt;&gt;&gt;&gt;  目标1: nest" style="text;strokeColor=none;fillColor=none;align=left;verticalAlign=middle;spacingLeft=4;spacingRight=4;overflow=hidden;points=[[0,0.5],[1,0.5]];portConstraint=eastwest;rotatable=0;fontSize=23;fontColor=#000203;" parent="i4aK6D64xnlQs3ZU0jmY-18" vertex="1">
                    <mxGeometry y="30" width="355" height="30" as="geometry"/>
                </mxCell>
                <mxCell id="i4aK6D64xnlQs3ZU0jmY-20" value="源2: /site/blog &gt;&gt;&gt;&gt;&gt;  目标2: local" style="text;strokeColor=none;fillColor=none;align=left;verticalAlign=middle;spacingLeft=4;spacingRight=4;overflow=hidden;points=[[0,0.5],[1,0.5]];portConstraint=eastwest;rotatable=0;fontSize=23;fontColor=#000203;" parent="i4aK6D64xnlQs3ZU0jmY-18" vertex="1">
                    <mxGeometry y="60" width="355" height="30" as="geometry"/>
                </mxCell>
                <mxCell id="i4aK6D64xnlQs3ZU0jmY-21" value="源3: /              &gt;&gt;&gt;&gt;&gt;  目标3: local" style="text;strokeColor=none;fillColor=none;align=left;verticalAlign=middle;spacingLeft=4;spacingRight=4;overflow=hidden;points=[[0,0.5],[1,0.5]];portConstraint=eastwest;rotatable=0;fontSize=23;fontColor=#000203;" parent="i4aK6D64xnlQs3ZU0jmY-18" vertex="1">
                    <mxGeometry y="90" width="355" height="30" as="geometry"/>
                </mxCell>
                <mxCell id="i4aK6D64xnlQs3ZU0jmY-22" value="protocol, domain, port, route, ip" style="rounded=0;whiteSpace=wrap;html=1;fontSize=23;fontColor=#000203;align=left;" parent="1" vertex="1">
                    <mxGeometry x="405" y="489" width="235" height="110" as="geometry"/>
                </mxCell>
                <mxCell id="i4aK6D64xnlQs3ZU0jmY-23" value="local file" style="rounded=0;whiteSpace=wrap;html=1;fontSize=23;fontColor=#000203;" parent="1" vertex="1">
                    <mxGeometry x="650" y="489" width="110" height="46" as="geometry"/>
                </mxCell>
                <mxCell id="i4aK6D64xnlQs3ZU0jmY-24" value="service" style="rounded=0;whiteSpace=wrap;html=1;fontSize=23;fontColor=#B3B3B3;strokeColor=#B3B3B3;" parent="1" vertex="1">
                    <mxGeometry x="650" y="553" width="110" height="46" as="geometry"/>
                </mxCell>
                <mxCell id="i4aK6D64xnlQs3ZU0jmY-26" value="" style="shadow=0;dashed=0;html=1;strokeColor=none;fillColor=#4495D1;labelPosition=center;verticalLabelPosition=bottom;verticalAlign=top;align=center;outlineConnect=0;shape=mxgraph.veeam.2d.file_system_browser;fontSize=23;fontColor=#000203;" parent="1" vertex="1">
                    <mxGeometry x="413" y="145" width="145" height="138" as="geometry"/>
                </mxCell>
                <mxCell id="i4aK6D64xnlQs3ZU0jmY-27" value="/www/blog" style="text;html=1;strokeColor=none;fillColor=none;align=center;verticalAlign=middle;whiteSpace=wrap;rounded=0;fontSize=23;fontColor=#000203;" parent="1" vertex="1">
                    <mxGeometry x="447" y="105" width="60" height="30" as="geometry"/>
                </mxCell>
                <mxCell id="i4aK6D64xnlQs3ZU0jmY-30" value="4. 匹配规则，找到目标文件" style="text;html=1;align=center;verticalAlign=middle;resizable=0;points=[];autosize=1;strokeColor=none;fillColor=none;fontSize=23;fontStyle=1" parent="1" vertex="1">
                    <mxGeometry x="514" y="286" width="300" height="40" as="geometry"/>
                </mxCell>
                <mxCell id="i4aK6D64xnlQs3ZU0jmY-31" value="5. 返回文件&lt;br&gt;html,css,js,images" style="text;html=1;align=center;verticalAlign=middle;resizable=0;points=[];autosize=1;strokeColor=none;fillColor=none;fontSize=23;fontStyle=1" parent="1" vertex="1">
                    <mxGeometry x="560" y="130" width="230" height="70" as="geometry"/>
                </mxCell>
                <mxCell id="i4aK6D64xnlQs3ZU0jmY-32" value="" style="ellipse;shape=cloud;whiteSpace=wrap;html=1;" parent="1" vertex="1">
                    <mxGeometry x="923" y="651" width="800" height="230" as="geometry"/>
                </mxCell>
                <mxCell id="i4aK6D64xnlQs3ZU0jmY-33" value="http://www.weready.online:6000/site/blog/index.html" style="swimlane;fontSize=14;fontColor=#B3B3B3;" parent="1" vertex="1">
                    <mxGeometry x="920" y="86" width="380" height="219" as="geometry"/>
                </mxCell>
                <mxCell id="i4aK6D64xnlQs3ZU0jmY-34" value="6.&amp;nbsp;浏览器加载内容: html,&amp;nbsp; &amp;nbsp; &amp;nbsp;&lt;br&gt;css, js 渲染，执行脚本" style="text;html=1;align=center;verticalAlign=middle;resizable=0;points=[];autosize=1;strokeColor=none;fillColor=none;fontSize=23;fontStyle=1" parent="i4aK6D64xnlQs3ZU0jmY-33" vertex="1">
                    <mxGeometry x="24" y="23" width="310" height="70" as="geometry"/>
                </mxCell>
                <mxCell id="i4aK6D64xnlQs3ZU0jmY-35" value="用户浏览器" style="text;html=1;align=center;verticalAlign=middle;resizable=0;points=[];autosize=1;strokeColor=none;fillColor=none;fontSize=27;fontColor=#007E9E;fontStyle=1" parent="i4aK6D64xnlQs3ZU0jmY-33" vertex="1">
                    <mxGeometry x="102" y="169" width="160" height="50" as="geometry"/>
                </mxCell>
                <mxCell id="i4aK6D64xnlQs3ZU0jmY-59" value="8. JS::AJAX 请求: /api/restful" style="text;html=1;align=center;verticalAlign=middle;resizable=0;points=[];autosize=1;strokeColor=none;fillColor=none;fontSize=23;fontStyle=1" parent="i4aK6D64xnlQs3ZU0jmY-33" vertex="1">
                    <mxGeometry x="22" y="129" width="340" height="40" as="geometry"/>
                </mxCell>
                <mxCell id="i4aK6D64xnlQs3ZU0jmY-60" value="7. 前端路由解析" style="text;html=1;align=center;verticalAlign=middle;resizable=0;points=[];autosize=1;strokeColor=none;fillColor=none;fontSize=23;fontStyle=1" parent="i4aK6D64xnlQs3ZU0jmY-33" vertex="1">
                    <mxGeometry x="23" y="87" width="190" height="40" as="geometry"/>
                </mxCell>
                <mxCell id="i4aK6D64xnlQs3ZU0jmY-37" value="" style="shape=internalStorage;whiteSpace=wrap;html=1;backgroundOutline=1;fontSize=23;fontColor=#007E9E;" parent="1" vertex="1">
                    <mxGeometry x="920" y="335" width="330" height="270" as="geometry"/>
                </mxCell>
                <mxCell id="i4aK6D64xnlQs3ZU0jmY-38" value="用&lt;br&gt;户&lt;br&gt;操&lt;br&gt;作&lt;br&gt;系&lt;br&gt;统" style="text;html=1;align=center;verticalAlign=middle;resizable=0;points=[];autosize=1;strokeColor=none;fillColor=none;fontSize=27;fontColor=#007E9E;fontStyle=1" parent="1" vertex="1">
                    <mxGeometry x="945" y="365" width="50" height="210" as="geometry"/>
                </mxCell>
                <mxCell id="i4aK6D64xnlQs3ZU0jmY-39" value="http&lt;br&gt;GET&lt;br&gt;..." style="shape=note;whiteSpace=wrap;html=1;backgroundOutline=1;darkOpacity=0.05;fontSize=23;fontColor=#000203;" parent="1" vertex="1">
                    <mxGeometry x="1033" y="365" width="80" height="110" as="geometry"/>
                </mxCell>
                <mxCell id="i4aK6D64xnlQs3ZU0jmY-40" value="tcp/ip" style="shape=note;whiteSpace=wrap;html=1;backgroundOutline=1;darkOpacity=0.05;fontSize=23;fontColor=#000203;" parent="1" vertex="1">
                    <mxGeometry x="1150" y="485" width="80" height="110" as="geometry"/>
                </mxCell>
                <mxCell id="i4aK6D64xnlQs3ZU0jmY-41" value="" style="curved=1;endArrow=classic;html=1;rounded=0;fontSize=23;fontColor=#000203;exitX=0.5;exitY=1;exitDx=0;exitDy=0;exitPerimeter=0;entryX=0;entryY=0.5;entryDx=0;entryDy=0;entryPerimeter=0;" parent="1" source="i4aK6D64xnlQs3ZU0jmY-39" target="i4aK6D64xnlQs3ZU0jmY-40" edge="1">
                    <mxGeometry width="50" height="50" relative="1" as="geometry">
                        <mxPoint x="1050" y="565" as="sourcePoint"/>
                        <mxPoint x="1100" y="515" as="targetPoint"/>
                        <Array as="points">
                            <mxPoint x="1073" y="540"/>
                        </Array>
                    </mxGeometry>
                </mxCell>
                <mxCell id="i4aK6D64xnlQs3ZU0jmY-42" value="DNS" style="shape=hexagon;perimeter=hexagonPerimeter2;whiteSpace=wrap;html=1;fixedSize=1;fontSize=23;fontColor=#000203;" parent="1" vertex="1">
                    <mxGeometry x="991" y="518" width="130" height="60" as="geometry"/>
                </mxCell>
                <mxCell id="i4aK6D64xnlQs3ZU0jmY-43" value="9.&lt;br&gt;http 请求&lt;br&gt;转成 ip 包" style="text;html=1;align=center;verticalAlign=middle;resizable=0;points=[];autosize=1;strokeColor=none;fillColor=none;fontSize=23;fontStyle=1" parent="1" vertex="1">
                    <mxGeometry x="1120" y="365" width="130" height="100" as="geometry"/>
                </mxCell>
                <mxCell id="i4aK6D64xnlQs3ZU0jmY-44" value="10.ip 包 被 发送到公网" style="text;html=1;align=center;verticalAlign=middle;resizable=0;points=[];autosize=1;strokeColor=none;fillColor=none;fontSize=23;fontStyle=1" parent="1" vertex="1">
                    <mxGeometry x="994" y="730" width="260" height="40" as="geometry"/>
                </mxCell>
                <mxCell id="i4aK6D64xnlQs3ZU0jmY-45" value="" style="shape=internalStorage;whiteSpace=wrap;html=1;backgroundOutline=1;fontSize=23;fontColor=#007E9E;" parent="1" vertex="1">
                    <mxGeometry x="1279" y="335" width="440" height="270" as="geometry"/>
                </mxCell>
                <mxCell id="i4aK6D64xnlQs3ZU0jmY-46" value="W&lt;br&gt;E&lt;br&gt;B&lt;br&gt;&lt;br&gt;服&lt;br&gt;务&lt;br&gt;器&lt;br&gt;" style="text;html=1;align=center;verticalAlign=middle;resizable=0;points=[];autosize=1;strokeColor=none;fillColor=none;fontSize=27;fontColor=#007E9E;fontStyle=1" parent="1" vertex="1">
                    <mxGeometry x="1668" y="360" width="50" height="240" as="geometry"/>
                </mxCell>
                <mxCell id="i4aK6D64xnlQs3ZU0jmY-47" value="11.ip 包 被 发送到目标服务器" style="text;html=1;align=center;verticalAlign=middle;resizable=0;points=[];autosize=1;strokeColor=none;fillColor=none;fontSize=23;fontStyle=1" parent="1" vertex="1">
                    <mxGeometry x="1315" y="709" width="320" height="40" as="geometry"/>
                </mxCell>
                <mxCell id="i4aK6D64xnlQs3ZU0jmY-53" value="local file" style="rounded=0;whiteSpace=wrap;html=1;fontSize=23;fontColor=#B3B3B3;strokeColor=#CCCCCC;" parent="1" vertex="1">
                    <mxGeometry x="1559" y="489" width="110" height="46" as="geometry"/>
                </mxCell>
                <mxCell id="i4aK6D64xnlQs3ZU0jmY-54" value="service" style="rounded=0;whiteSpace=wrap;html=1;fontSize=23;fontColor=#000203;" parent="1" vertex="1">
                    <mxGeometry x="1559" y="553" width="110" height="46" as="geometry"/>
                </mxCell>
                <mxCell id="i4aK6D64xnlQs3ZU0jmY-56" value="POST@/api/restful" style="text;html=1;strokeColor=none;fillColor=none;align=center;verticalAlign=middle;whiteSpace=wrap;rounded=0;fontSize=23;fontColor=#000203;" parent="1" vertex="1">
                    <mxGeometry x="1314" y="150" width="198" height="30" as="geometry"/>
                </mxCell>
                <mxCell id="i4aK6D64xnlQs3ZU0jmY-57" value="12. 匹配规则，找到目标服务" style="text;html=1;align=center;verticalAlign=middle;resizable=0;points=[];autosize=1;strokeColor=none;fillColor=none;fontSize=23;fontStyle=1" parent="1" vertex="1">
                    <mxGeometry x="1418" y="286" width="310" height="40" as="geometry"/>
                </mxCell>
                <mxCell id="i4aK6D64xnlQs3ZU0jmY-58" value="13. 根据路由、方法、参数&amp;nbsp; &amp;nbsp; &amp;nbsp; &amp;nbsp; &amp;nbsp; &amp;nbsp;&amp;nbsp;&lt;br&gt;及请求头和Body返回结果&lt;br&gt;TEXT&lt;br&gt;HTML&lt;br&gt;XML&lt;br&gt;JSON&lt;br&gt;Error Code" style="text;html=1;align=center;verticalAlign=middle;resizable=0;points=[];autosize=1;strokeColor=none;fillColor=none;fontSize=23;fontStyle=1" parent="1" vertex="1">
                    <mxGeometry x="1400" y="51" width="370" height="210" as="geometry"/>
                </mxCell>
                <mxCell id="i4aK6D64xnlQs3ZU0jmY-61" value="" style="shape=image;html=1;verticalAlign=top;verticalLabelPosition=bottom;labelBackgroundColor=#ffffff;imageAspect=0;aspect=fixed;image=https://cdn2.iconfinder.com/data/icons/whcompare-servers-web-hosting/50/website-migration-128.png;strokeColor=#CCCCCC;fontSize=23;fontColor=#B3B3B3;" parent="1" vertex="1">
                    <mxGeometry x="1314" y="165" width="128" height="128" as="geometry"/>
                </mxCell>
                <mxCell id="7ZUFgn2-yEsAoZ5fmhGq-1" value="" style="shape=curlyBracket;whiteSpace=wrap;html=1;rounded=1;rotation=90;" parent="1" vertex="1">
                    <mxGeometry x="33" y="50" width="20" height="40" as="geometry"/>
                </mxCell>
                <mxCell id="7ZUFgn2-yEsAoZ5fmhGq-2" value="" style="shape=curlyBracket;whiteSpace=wrap;html=1;rounded=1;rotation=90;" parent="1" vertex="1">
                    <mxGeometry x="121" y="5" width="20" height="130" as="geometry"/>
                </mxCell>
                <mxCell id="7ZUFgn2-yEsAoZ5fmhGq-3" value="" style="shape=curlyBracket;whiteSpace=wrap;html=1;rounded=1;rotation=90;" parent="1" vertex="1">
                    <mxGeometry x="210" y="51" width="20" height="40" as="geometry"/>
                </mxCell>
                <mxCell id="7ZUFgn2-yEsAoZ5fmhGq-4" value="" style="shape=curlyBracket;whiteSpace=wrap;html=1;rounded=1;rotation=90;" parent="1" vertex="1">
                    <mxGeometry x="298.5" y="5.5" width="20" height="131" as="geometry"/>
                </mxCell>
                <mxCell id="7ZUFgn2-yEsAoZ5fmhGq-5" value="protocol" style="text;html=1;strokeColor=none;fillColor=none;align=center;verticalAlign=middle;whiteSpace=wrap;rounded=0;fontColor=#CC0000;fontStyle=1;fontSize=24;" parent="1" vertex="1">
                    <mxGeometry x="19" y="36" width="60" height="30" as="geometry"/>
                </mxCell>
                <mxCell id="7ZUFgn2-yEsAoZ5fmhGq-6" value="domain" style="text;html=1;strokeColor=none;fillColor=none;align=center;verticalAlign=middle;whiteSpace=wrap;rounded=0;fontColor=#CC0000;fontStyle=1;fontSize=24;" parent="1" vertex="1">
                    <mxGeometry x="115" y="35" width="60" height="30" as="geometry"/>
                </mxCell>
                <mxCell id="7ZUFgn2-yEsAoZ5fmhGq-7" value="port" style="text;html=1;strokeColor=none;fillColor=none;align=center;verticalAlign=middle;whiteSpace=wrap;rounded=0;fontColor=#CC0000;fontStyle=1;fontSize=24;" parent="1" vertex="1">
                    <mxGeometry x="190" y="36" width="60" height="30" as="geometry"/>
                </mxCell>
                <mxCell id="7ZUFgn2-yEsAoZ5fmhGq-8" value="route" style="text;html=1;strokeColor=none;fillColor=none;align=center;verticalAlign=middle;whiteSpace=wrap;rounded=0;fontColor=#CC0000;fontStyle=1;fontSize=24;" parent="1" vertex="1">
                    <mxGeometry x="281" y="35" width="60" height="30" as="geometry"/>
                </mxCell>
                <mxCell id="7ZUFgn2-yEsAoZ5fmhGq-9" value="method" style="text;html=1;strokeColor=none;fillColor=none;align=center;verticalAlign=middle;whiteSpace=wrap;rounded=0;fontColor=#CC0000;fontStyle=1;fontSize=24;" parent="1" vertex="1">
                    <mxGeometry x="134" y="445" width="60" height="30" as="geometry"/>
                </mxCell>
                <mxCell id="7ZUFgn2-yEsAoZ5fmhGq-10" value="&lt;div style=&quot;font-family: Consolas, &amp;quot;Courier New&amp;quot;, monospace; font-size: 14px; line-height: 19px;&quot;&gt;&lt;font style=&quot;background-color: rgb(255, 255, 255);&quot; color=&quot;#000203&quot;&gt;&amp;lt;!DOCTYPE html&amp;gt;&lt;/font&gt;&lt;/div&gt;&lt;div style=&quot;font-family: Consolas, &amp;quot;Courier New&amp;quot;, monospace; font-size: 14px; line-height: 19px;&quot;&gt;&lt;font style=&quot;background-color: rgb(255, 255, 255);&quot; color=&quot;#000203&quot;&gt;&amp;lt;html&amp;gt;&lt;/font&gt;&lt;/div&gt;&lt;div style=&quot;font-family: Consolas, &amp;quot;Courier New&amp;quot;, monospace; font-size: 14px; line-height: 19px;&quot;&gt;&lt;font style=&quot;background-color: rgb(255, 255, 255);&quot; color=&quot;#000203&quot;&gt;&amp;lt;head&amp;gt;&lt;/font&gt;&lt;/div&gt;&lt;div style=&quot;font-family: Consolas, &amp;quot;Courier New&amp;quot;, monospace; font-size: 14px; line-height: 19px;&quot;&gt;&lt;div style=&quot;line-height: 19px;&quot;&gt;&lt;font style=&quot;background-color: rgb(255, 255, 255);&quot; color=&quot;#000203&quot;&gt;&amp;lt;link rel=&quot;icon&quot; href=&quot;/x.png&quot;/&amp;gt;&lt;/font&gt;&lt;/div&gt;&lt;div style=&quot;line-height: 19px;&quot;&gt;&lt;div style=&quot;line-height: 19px;&quot;&gt;&lt;font style=&quot;background-color: rgb(255, 255, 255);&quot; color=&quot;#000203&quot;&gt;&amp;lt;script src=&quot;/x.js&quot;&amp;gt;&amp;lt;/script&amp;gt;&lt;/font&gt;&lt;/div&gt;&lt;div style=&quot;line-height: 19px;&quot;&gt;&lt;div style=&quot;line-height: 19px;&quot;&gt;&lt;font style=&quot;background-color: rgb(255, 255, 255);&quot; color=&quot;#000203&quot;&gt;&amp;lt;link href=&quot;/x.css&quot; rel=&quot;style&quot;&amp;gt;&lt;/font&gt;&lt;/div&gt;&lt;div style=&quot;line-height: 19px;&quot;&gt;&lt;font color=&quot;#000203&quot;&gt;&lt;span style=&quot;background-color: rgb(255, 255, 255);&quot;&gt;&amp;lt;body&amp;gt;&lt;/span&gt;&lt;/font&gt;&lt;/div&gt;&lt;div style=&quot;line-height: 19px;&quot;&gt;&lt;font color=&quot;#000203&quot;&gt;&lt;span style=&quot;background-color: rgb(255, 255, 255);&quot;&gt;&lt;br&gt;&lt;/span&gt;&lt;/font&gt;&lt;/div&gt;&lt;/div&gt;&lt;/div&gt;&lt;/div&gt;" style="shape=note;whiteSpace=wrap;html=1;backgroundOutline=1;darkOpacity=0.05;fontSize=24;fontColor=#CC0000;align=left;" parent="1" vertex="1">
                    <mxGeometry x="685" y="10" width="260" height="120" as="geometry"/>
                </mxCell>
                <mxCell id="7ZUFgn2-yEsAoZ5fmhGq-11" value="params" style="text;html=1;strokeColor=none;fillColor=none;align=center;verticalAlign=middle;whiteSpace=wrap;rounded=0;fontColor=#CC0000;fontStyle=1;fontSize=24;" parent="1" vertex="1">
                    <mxGeometry x="378" y="35" width="60" height="30" as="geometry"/>
                </mxCell>
                <mxCell id="7ZUFgn2-yEsAoZ5fmhGq-12" value="" style="shape=curlyBracket;whiteSpace=wrap;html=1;rounded=1;rotation=90;" parent="1" vertex="1">
                    <mxGeometry x="398.75" y="38.25" width="20" height="67.5" as="geometry"/>
                </mxCell>
                <mxCell id="7ZUFgn2-yEsAoZ5fmhGq-13" value="规则列表" style="swimlane;fontStyle=0;childLayout=stackLayout;horizontal=1;startSize=30;horizontalStack=0;resizeParent=1;resizeParentMax=0;resizeLast=0;collapsible=1;marginBottom=0;fontSize=23;fontColor=#000203;" parent="1" vertex="1">
                    <mxGeometry x="1313" y="365" width="355" height="120" as="geometry"/>
                </mxCell>
                <mxCell id="7ZUFgn2-yEsAoZ5fmhGq-14" value="源1: /api/xxx   &gt;&gt;&gt;&gt;&gt;  目标1: nest" style="text;strokeColor=none;fillColor=none;align=left;verticalAlign=middle;spacingLeft=4;spacingRight=4;overflow=hidden;points=[[0,0.5],[1,0.5]];portConstraint=eastwest;rotatable=0;fontSize=23;fontColor=#000203;" parent="7ZUFgn2-yEsAoZ5fmhGq-13" vertex="1">
                    <mxGeometry y="30" width="355" height="30" as="geometry"/>
                </mxCell>
                <mxCell id="7ZUFgn2-yEsAoZ5fmhGq-15" value="源2: /site/blog &gt;&gt;&gt;&gt;&gt;  目标2: local" style="text;strokeColor=none;fillColor=none;align=left;verticalAlign=middle;spacingLeft=4;spacingRight=4;overflow=hidden;points=[[0,0.5],[1,0.5]];portConstraint=eastwest;rotatable=0;fontSize=23;fontColor=#000203;" parent="7ZUFgn2-yEsAoZ5fmhGq-13" vertex="1">
                    <mxGeometry y="60" width="355" height="30" as="geometry"/>
                </mxCell>
                <mxCell id="7ZUFgn2-yEsAoZ5fmhGq-16" value="源3: /              &gt;&gt;&gt;&gt;&gt;  目标3: local" style="text;strokeColor=none;fillColor=none;align=left;verticalAlign=middle;spacingLeft=4;spacingRight=4;overflow=hidden;points=[[0,0.5],[1,0.5]];portConstraint=eastwest;rotatable=0;fontSize=23;fontColor=#000203;" parent="7ZUFgn2-yEsAoZ5fmhGq-13" vertex="1">
                    <mxGeometry y="90" width="355" height="30" as="geometry"/>
                </mxCell>
                <mxCell id="7ZUFgn2-yEsAoZ5fmhGq-17" value="protocol, domain, port, route, ip" style="rounded=0;whiteSpace=wrap;html=1;fontSize=23;fontColor=#000203;align=left;" parent="1" vertex="1">
                    <mxGeometry x="1313" y="489" width="235" height="110" as="geometry"/>
                </mxCell>
                <mxCell id="7ZUFgn2-yEsAoZ5fmhGq-20" value="" style="shape=flexArrow;endArrow=classic;html=1;rounded=0;fontSize=24;fontColor=#000203;entryX=0.031;entryY=-0.01;entryDx=0;entryDy=0;entryPerimeter=0;" parent="1" source="i4aK6D64xnlQs3ZU0jmY-4" target="i4aK6D64xnlQs3ZU0jmY-13" edge="1">
                    <mxGeometry width="50" height="50" relative="1" as="geometry">
                        <mxPoint x="230" y="305" as="sourcePoint"/>
                        <mxPoint x="280" y="255" as="targetPoint"/>
                    </mxGeometry>
                </mxCell>
                <mxCell id="7ZUFgn2-yEsAoZ5fmhGq-21" value="" style="shape=flexArrow;endArrow=classic;html=1;rounded=0;fontSize=24;fontColor=#000203;" parent="1" target="i4aK6D64xnlQs3ZU0jmY-14" edge="1">
                    <mxGeometry width="50" height="50" relative="1" as="geometry">
                        <mxPoint x="291" y="595" as="sourcePoint"/>
                        <mxPoint x="341" y="545" as="targetPoint"/>
                    </mxGeometry>
                </mxCell>
                <mxCell id="7ZUFgn2-yEsAoZ5fmhGq-22" value="" style="shape=flexArrow;endArrow=classic;html=1;rounded=0;fontSize=24;fontColor=#000203;" parent="1" edge="1">
                    <mxGeometry width="50" height="50" relative="1" as="geometry">
                        <mxPoint x="550" y="670" as="sourcePoint"/>
                        <mxPoint x="600" y="620" as="targetPoint"/>
                    </mxGeometry>
                </mxCell>
                <mxCell id="7ZUFgn2-yEsAoZ5fmhGq-23" value="" style="shape=flexArrow;endArrow=classic;html=1;rounded=0;fontSize=24;fontColor=#000203;entryX=0.504;entryY=1.057;entryDx=0;entryDy=0;entryPerimeter=0;" parent="1" target="i4aK6D64xnlQs3ZU0jmY-31" edge="1">
                    <mxGeometry width="50" height="50" relative="1" as="geometry">
                        <mxPoint x="721" y="270" as="sourcePoint"/>
                        <mxPoint x="771" y="220" as="targetPoint"/>
                    </mxGeometry>
                </mxCell>
                <mxCell id="7ZUFgn2-yEsAoZ5fmhGq-24" value="" style="shape=flexArrow;endArrow=classic;html=1;rounded=0;fontSize=24;fontColor=#000203;" parent="1" source="i4aK6D64xnlQs3ZU0jmY-31" edge="1">
                    <mxGeometry width="50" height="50" relative="1" as="geometry">
                        <mxPoint x="840" y="210" as="sourcePoint"/>
                        <mxPoint x="920" y="160" as="targetPoint"/>
                    </mxGeometry>
                </mxCell>
                <mxCell id="7ZUFgn2-yEsAoZ5fmhGq-25" value="" style="shape=flexArrow;endArrow=classic;html=1;rounded=0;fontSize=24;fontColor=#000203;entryX=0.031;entryY=-0.01;entryDx=0;entryDy=0;entryPerimeter=0;" parent="1" edge="1">
                    <mxGeometry width="50" height="50" relative="1" as="geometry">
                        <mxPoint x="1154.342261904762" y="299.5" as="sourcePoint"/>
                        <mxPoint x="1174.0299999999997" y="358.5" as="targetPoint"/>
                    </mxGeometry>
                </mxCell>
                <mxCell id="7ZUFgn2-yEsAoZ5fmhGq-26" value="" style="shape=flexArrow;endArrow=classic;html=1;rounded=0;fontSize=24;fontColor=#000203;" parent="1" edge="1">
                    <mxGeometry width="50" height="50" relative="1" as="geometry">
                        <mxPoint x="1250" y="589.5" as="sourcePoint"/>
                        <mxPoint x="1183.8064516129034" y="724.5" as="targetPoint"/>
                    </mxGeometry>
                </mxCell>
                <mxCell id="7ZUFgn2-yEsAoZ5fmhGq-27" value="" style="shape=flexArrow;endArrow=classic;html=1;rounded=0;fontSize=24;fontColor=#000203;" parent="1" edge="1">
                    <mxGeometry width="50" height="50" relative="1" as="geometry">
                        <mxPoint x="1509" y="664.5" as="sourcePoint"/>
                        <mxPoint x="1559" y="614.5" as="targetPoint"/>
                    </mxGeometry>
                </mxCell>
                <mxCell id="7ZUFgn2-yEsAoZ5fmhGq-28" value="" style="shape=flexArrow;endArrow=classic;html=1;rounded=0;fontSize=24;fontColor=#000203;entryX=0.504;entryY=1.057;entryDx=0;entryDy=0;entryPerimeter=0;" parent="1" edge="1">
                    <mxGeometry width="50" height="50" relative="1" as="geometry">
                        <mxPoint x="1700" y="283" as="sourcePoint"/>
                        <mxPoint x="1668" y="216.99" as="targetPoint"/>
                        <Array as="points">
                            <mxPoint x="1695.08" y="260"/>
                        </Array>
                    </mxGeometry>
                </mxCell>
            </root>
        </mxGraphModel>
    </diagram>
</mxfile>